<svg width="35" height="35" viewBox="0 0 35 35" fill="none" xmlns="http://www.w3.org/2000/svg">
<path d="M17.5 3.5C9.7685 3.5 3.5 9.7685 3.5 17.5C3.5 20.1264 4.23773 22.5751 5.49609 24.6755L3.62533 31.5L10.5957 29.6702C12.6342 30.8292 14.9876 31.5 17.5 31.5C25.2315 31.5 31.5 25.2315 31.5 17.5C31.5 9.7685 25.2315 3.5 17.5 3.5ZM12.708 10.9694C12.9355 10.9694 13.1693 10.968 13.3711 10.9785C13.6208 10.9843 13.8925 11.0026 14.1527 11.5778C14.4618 12.2615 15.135 13.9766 15.2214 14.1504C15.3077 14.3242 15.3689 14.529 15.2487 14.7565C15.1344 14.9898 15.0749 15.1311 14.9069 15.3376C14.7331 15.5382 14.5426 15.7875 14.3851 15.9391C14.2113 16.113 14.0318 16.3036 14.2324 16.6501C14.4331 16.9966 15.13 18.1325 16.1602 19.0495C17.4843 20.2325 18.6016 20.596 18.9492 20.7699C19.2969 20.9437 19.4982 20.9166 19.6989 20.6833C19.9054 20.4558 20.5661 19.6751 20.7995 19.3275C21.027 18.9798 21.2592 19.04 21.5742 19.1543C21.8939 19.2686 23.5986 20.1084 23.9463 20.2822C24.294 20.4561 24.5219 20.5421 24.6094 20.6833C24.6992 20.8291 24.6993 21.5233 24.4111 22.333C24.123 23.1415 22.7079 23.9234 22.0732 23.9782C21.4327 24.0377 20.835 24.2661 17.9102 23.1146C14.3822 21.7251 12.1572 18.1116 11.9834 17.8783C11.8096 17.6508 10.5706 15.9996 10.5706 14.2962C10.5706 12.5871 11.4668 11.75 11.7806 11.4023C12.1003 11.0547 12.4747 10.9694 12.708 10.9694Z" fill="#EE2490"/>
</svg>
